<?xml version="1.0" encoding="iso-8859-1"?>
<!-- Uploaded to: SVG Repo, www.svgrepo.com, Generator: SVG Repo Mixer Tools -->
<!DOCTYPE svg PUBLIC "-//W3C//DTD SVG 1.1//EN" "http://www.w3.org/Graphics/SVG/1.1/DTD/svg11.dtd">
<svg fill="#000000" height="800px" width="800px" version="1.1" id="Capa_1" xmlns="http://www.w3.org/2000/svg" xmlns:xlink="http://www.w3.org/1999/xlink" 
	 viewBox="0 0 200.564 200.564" xml:space="preserve">
<path d="M199.092,1.465c-1.796-1.796-4.653-1.961-6.643-0.382L84.484,86.731l-1.382-1.382c-1.02-1.02-2.427-1.541-3.867-1.454
	c-1.438,0.096-2.765,0.807-3.641,1.951l-27.524,35.986l-33.781,22.566c-1.994,1.331-2.744,3.932-1.812,6.141
	c0.16,0.379,3.85,9.409-1.491,21.227c-5.778,12.788-10.356,21.352-10.401,21.437c-0.026,0.049-0.039,0.1-0.063,0.149
	c-0.072,0.145-0.131,0.294-0.188,0.444c-0.05,0.132-0.1,0.262-0.138,0.396c-0.041,0.144-0.07,0.29-0.098,0.437
	c-0.027,0.144-0.055,0.286-0.07,0.431c-0.015,0.145-0.016,0.289-0.018,0.435c-0.002,0.145-0.005,0.289,0.006,0.434
	c0.011,0.148,0.035,0.293,0.059,0.44c0.023,0.141,0.045,0.28,0.08,0.418c0.036,0.144,0.085,0.283,0.134,0.424
	c0.049,0.139,0.097,0.276,0.158,0.411c0.058,0.128,0.127,0.252,0.197,0.376c0.078,0.139,0.158,0.276,0.249,0.408
	c0.031,0.045,0.052,0.095,0.085,0.139c0.096,0.13,0.202,0.249,0.308,0.367c0.021,0.023,0.038,0.048,0.059,0.07
	c0.189,0.202,0.395,0.381,0.61,0.546c0.02,0.016,0.036,0.035,0.056,0.05c0.026,0.019,0.054,0.031,0.08,0.05
	c0.173,0.124,0.352,0.236,0.538,0.336c0.035,0.019,0.069,0.042,0.105,0.06c0.21,0.106,0.427,0.196,0.649,0.271
	c0.066,0.022,0.132,0.039,0.198,0.058c0.165,0.049,0.332,0.089,0.501,0.12c0.073,0.013,0.145,0.028,0.218,0.038
	c0.225,0.031,0.451,0.052,0.679,0.053c0.004,0,0.008,0.001,0.012,0.001l0.002,0c0.001,0,0.002,0,0.003,0
	c0.285,0,0.571-0.033,0.855-0.083c0.059-0.01,0.117-0.02,0.176-0.032c0.275-0.058,0.547-0.136,0.815-0.243
	c0.042-0.017,0.082-0.039,0.124-0.057c0.131-0.056,0.262-0.11,0.39-0.178c0.085-0.046,8.649-4.623,21.438-10.401
	c4.207-1.901,8.529-2.865,12.845-2.865c5.056,0,8.341,1.358,8.342,1.358c2.223,0.983,4.83,0.224,6.18-1.796l22.568-33.783
	l35.983-27.522c1.145-0.876,1.856-2.203,1.952-3.641c0.095-1.438-0.435-2.848-1.454-3.866l-1.382-1.382L199.474,8.107
	C201.052,6.117,200.888,3.261,199.092,1.465z M22.922,150.657l27.983-18.693l5.308,5.309l-4.408,4.408
	c-1.632-0.694-3.401-1.063-5.228-1.063c-3.569,0-6.924,1.39-9.448,3.913c-2.524,2.523-3.914,5.879-3.914,9.448
	c0,1.827,0.369,3.596,1.063,5.228l-12.562,12.561C24.75,162.732,23.944,155.094,22.922,150.657z M49.94,153.979
	c0,0.898-0.35,1.742-0.985,2.378c-1.27,1.27-3.484,1.27-4.754,0c-0.635-0.636-0.985-1.479-0.985-2.378
	c0-0.897,0.35-1.741,0.985-2.377c0.635-0.635,1.479-0.984,2.377-0.984s1.742,0.35,2.377,0.985
	C49.59,152.237,49.94,153.081,49.94,153.979z M49.905,177.625c-2.098-0.485-4.913-0.92-8.269-0.92
	c-4.327,0-8.631,0.716-12.846,2.132l12.56-12.559c1.632,0.694,3.401,1.063,5.227,1.063c3.569,0,6.925-1.39,9.448-3.914
	c2.523-2.523,3.914-5.879,3.914-9.448c0-1.827-0.369-3.595-1.063-5.227l4.408-4.408l5.308,5.308L49.905,177.625z"/>
</svg>